# xmcd CD database file
#
# Track frame offsets:
#	150
#	12972
#	26685
#	36052
#	49057
#	67332
#	80505
#	94547
#	103747
#	114407
#	123802
#	132832
#	143020
#	151895
#	161027
#	180310
#	189640
#	200607
#	217497
#	226647
#	238760
#	250395
#	264190
#	279800
#	289560
#
# Disc length: 4016 seconds
#
# Revision: 0
# Processed by: cddbd v1.5.1PL0 Copyright (c) Steve Scherf et al.
# Submitted via: CDex 1.51
#
DISCID=5a0fae19
DTITLE=Etienne Guereau and Marc Bercovitz - The best songs of piano bar
DYEAR=1999
DGENRE=Jazz
TTITLE0=Bridge over troubled water
TTITLE1=Ebony and ivory
TTITLE2=Georgia on my mind
TTITLE3=Hey Jude
TTITLE4=How deep is your love
TTITLE5=I will always love you
TTITLE6=Imagine
TTITLE7=In a sentimental mood
TTITLE8=Les feuilles mortes
TTITLE9=Little flower
TTITLE10=Love me tender
TTITLE11=Massachussetts
TTITLE12=Midnight in Moscow
TTITLE13=Misty
TTITLE14=My way (Comme d'habitude)
TTITLE15=Round' midnight
TTITLE16=Satin doll
TTITLE17=Saving all my love for you
TTITLE18=Schindler's list
TTITLE19=Sophisticated lady
TTITLE20=The girl from Ipanema
TTITLE21=The summer of 42 (Un été 42)
TTITLE22=Too much
TTITLE23=Wave
TTITLE24=Yesterday
EXTD=YEAR: 1999
EXTT0=
EXTT1=
EXTT2=
EXTT3=
EXTT4=
EXTT5=
EXTT6=
EXTT7=
EXTT8=
EXTT9=
EXTT10=
EXTT11=
EXTT12=
EXTT13=
EXTT14=
EXTT15=
EXTT16=
EXTT17=
EXTT18=
EXTT19=
EXTT20=
EXTT21=
EXTT22=
EXTT23=
EXTT24=
PLAYORDER=
